/* XPM */
static char *_b029c2cde2246e7b09151166325ab9f8K95ts5JEW5vISaR[] = {
/* columns rows colors chars-per-pixel */
"64 64 7 1 ",
"  c None",
". c black",
"X c red",
"o c #0B88D1",
"O c #099EF5",
"+ c #5EBDF5",
"@ c #E6E6E6",
/* pixels */
"                                                                ",
"                                                                ",
"                                                                ",
"                                                                ",
"                                                                ",
"                                                                ",
"                                                                ",
"                                                                ",
"                                                                ",
"                                                                ",
"                                                                ",
"                                                                ",
"                                                                ",
"                                                                ",
"                                                                ",
"                                                                ",
"                                                                ",
"                                                                ",
"                                                                ",
"                                                                ",
"                                                                ",
"                                                                ",
"                                                                ",
"                                                                ",
"                                                                ",
"                                                                ",
"                                                                ",
"                                                                ",
"                                                                ",
"                           .........                            ",
"                          .@@@@@@@@@.                           ",
"                          .@.......@.                           ",
"                          .@.     .@.                           ",
"                          .@.     .@.                           ",
"                     .....................                      ",
"                    .@@@@@@@@@@@@@@@@@@@@@.                     ",
"                   .@@@@@@@@@@@@@@@@@@@@@@@.                    ",
"                  .@@@@@@@@@@.....@@@@@@@@@@.                   ",
"                 .@@@@@@@@@..XXXXX..@@@@@@@@@.                  ",
"                .@@@@@@@@@.XXXXX.....@@@@@@@@@.                 ",
"                .@@@@@@@@.XXXX..@@@@@@@@@@@@@@.                 ",
"                .@@@@@@@.XXXX.@@@@@@@@@@@@@@@@.                 ",
"                .@@@@@@@.XXX.@@@@@@@@@@@@@@@@@.                 ",
"                .@@@@@@.XXXX.@@@@@@@@@@@@@@@@@.                 ",
"                .@@@@@@.XXX.@@@@@@@@@@@@@@@@@@.                 ",
"                .@@@@@@.XXX.@@@@@@@@@@@@@@@@@@.                 ",
"                .@@@@@@.XXX.@@@@@@@@@@@@@@@@@@.                 ",
"                .@@@@@@.XXX.@@@@@@@@@@@@@@@@@@.                 ",
"                .@@@@@@@.XXX.@@@@@@@@@@@@@@@@@.                 ",
"                .@@@@@@@.XXX.@@@@@@@@@@@@@@@@@.                 ",
"                .@@@@@@@@.XXX.@@@@@@@@@@@@@@@@.                 ",
"   ++           .@@@@@@@@@.XXX..@@@@O++++OOO@@.                 ",
"   ++++         .@@@@@@@@@@..XXX.O+++++++++++++O                ",
"  O+++++++++O   .@@@@@@@@@@@@.O++++OOOOOOOO++++++OOOO           ",
" OO+OOOOOOOO++++O@@+++++O+++++++OOOOOOOooOOOOO+++++++OOO+OOOOOOO",
" OOOOOOOOOO++++++++++++++OOOOOOOOOOooooOoooOOOOOO+++++++OO++++OO",
" OOOOOOOOOOOOOOOOOOOOOOOOOOOOOOOooooOOOOOOOooOOOOOOOOOOOOOOOOOO ",
" OOOOOOooOOOOOOOOOOOOOOOOOOOOOOOoOOOOOOOOOOOOoOOOOooOOooOOOOOOO ",
"  OOOOOOoooooooooOOOOOOOOOOOOOOOOOOOOOOOOOOOOOOOOOOOooOOOOOOO   ",
"  OOOOOOOOOOOOOOOOOOOOooOOOOoOOOOOOOOOOOOOOOOOOOOOOOOOOOOOOO    ",
"      OOOOOOOOOOOOOOOOOOooooOOOOOOOOOOOOOOOOOOOOOOOOOOOO        ",
"                OOOOOOOOOOOOOOOOOOOOOOOOOOOOOOOOO               ",
"                         OOOOOOOO                               ",
"                                                                "
};
