/* XPM */
static char *c84f2a301cd14d9ea58551923338b7a939LjW9rBGLI6VLpT[] = {
/* columns rows colors chars-per-pixel */
"64 64 7 1 ",
"  c None",
". c black",
"X c red",
"o c #0B88D1",
"O c #099EF5",
"+ c #5EBDF5",
"@ c #E6E6E6",
/* pixels */
"                                                                ",
"                                                                ",
"                                                                ",
"                                                                ",
"                                                                ",
"                                                                ",
"                                                                ",
"                                                                ",
"                                                                ",
"                                                                ",
"                                                                ",
"                                                                ",
"                                                                ",
"                                                                ",
"                                                                ",
"                                                                ",
"                                                                ",
"                                                                ",
"                                                                ",
"                                                                ",
"                                                                ",
"                                                                ",
"                                                                ",
"                                                                ",
"                                                                ",
"                                                                ",
"                                                                ",
"                                                                ",
"                                                                ",
"                                                                ",
"                                                                ",
"                                                                ",
"                                                                ",
"                           .........                            ",
"                          .@@@@@@@@@.                           ",
"                          .@.......@.                           ",
"                          .@.     .@.                           ",
"                          .@.     .@.                           ",
"                     .....................                      ",
"                    .@@@@@@@@@@@@@@@@@@@@@.                     ",
"                   .@@@@@@@@@@@@@@@@@@@@@@@.                    ",
"                  .@@@@@@@@@@.....@@@@@@@@@@.                   ",
"                 .@@@@@@@@@..XXXXX..@@@@@@@@@.                  ",
"                .@@@@@@@@@.XXXXX.....@@@@@@@@@.                 ",
"                .@@@@@@@@.XXXX..@@@@@@@@@@@@@@.                 ",
"                .@@@@@@@.XXXX.@@@@@@@@@@@@@@@@.                 ",
"                .@@@@@@@.XXX.@@@@@@@@@@@@@@@@@.                 ",
"                .@@@@@@.XXXX.@@@@@@@@@@@@@@@@@.                 ",
"                .@@@@@@.XXX.@@@@@@@@@@@@@@@@@@.                 ",
"                .@@@@@@.XXX.@@@@@@@@@@@@@@@@@@.                 ",
"        O++++++++@@@@@@.XXX.@@@@@@@@@@@@@@@@@@.      ++++++++O  ",
"      O++++++OOOO++O@@@.XXX.@@@@@@@@@@@@@@@@@@.    O+OOO+OO++++ ",
"    O+++++OOOOOOOOO+++@@.XXX.@@@@@@@@@@@@@@@@@.  ++++OOOOOOO++++",
"  OO++OOOOOOOOOOOOOOO+++.XXX.@@@@@@@@@@@@@@@@@.O+++OOOOOOOOOOO++",
" OO+OOOOOOoooooOOOOOOOO+++XXX.@@@@@@@@@@@@@@++++++OOO+OOOooOOO++",
" O+OOOOOoooOOOOoOOOOOOOOO++XXX..@@@@@@@@@OO+++++OO+OOOOoooOOOOO+",
" OOOOOooOOOOOOOOOOOOOOOOOO+++++++++++++++++++OOOOOOOOooOOOOOOOOO",
" OOOOOOOOOOOOOOOOOOOOOOOOOOOO++++++OOOOOOO+OOOOOOOOOooOOOOOOOOO ",
"  OOOOOOOOOOOOOOOOOOOOOOOOOOOOOOOOOOOOOOOOOOOOOOOOOoOOOOOOOOOOO ",
"   OOOOOOOOOOOOOOOOOOOOOOOOOOOOOOOOOOOoOOOOOOOOOOOoOOOOOOOOOOO  ",
"   OOOOOOOOOOOOOOOOOOOOOOooooOOOOOOOoooOOOOOOOOOOooOOOOOOOOO    ",
"       OOOOOOOOOOOOOOOOOOOOOOoooooooOO        OooOOOOOOO        ",
"               OOOOOOOOOOOOOOOOOO                               ",
"                                                                "
};
