/* XPM */
static char *ac7a57f9a3b949bbc42da9cf46f8d94f0mpxxfND6FFZ64pL[] = {
/* columns rows colors chars-per-pixel */
"64 64 17 1 ",
"  c None",
". c #663931",
"X c #7A4B34",
"o c #8F563B",
"O c #A87C2F",
"+ c #945C41",
"@ c #539427",
"# c #5EAD28",
"$ c #6ABE30",
"% c #E0A94B",
"& c #EBBA67",
"* c #88D653",
"= c #0B88D1",
"- c #099EF5",
"; c #5EBDF5",
": c #DBBC87",
"> c white",
/* pixels */
"                                                                ",
"                                                                ",
"                      *****                                     ",
"                    ***$$$$******                               ",
"                  ***$$$@@@@@$$$*                   *****       ",
"                  *$@@@@@$$$$@@$*                 **$$$$$$$     ",
"                 **@@$$$$$$$$$@@** $*********    **$$$$$$$$$$   ",
"        $*****   *@@$$         $$*$**$$$$$$$$$   *$$$$$@@$$$$$  ",
"      ***$$$$$$$$$@$$$$          $*$$$@@@@@@$$$ **$$$@@$$@@@$$  ",
"      *$$$$$$$$@$$$@@@$$         *$$$@@$$$$$@@$$$@@@@$$$$$$@$$$ ",
"     **$$$$$@@@@$$$$$@@###       *$$@@$$$$$$$$$$$@$$$$$$$$$$@$$ ",
"     *$$$$$@@$$$#...$$@$$##      *$$@$$#####$$$@$$########$$@$$ ",
"     *$$$$@@$$##.....$@@$$#      *$$@$#######$$@$       $##$@@$ ",
"     **$$$@$$###......$@$$#      *$$@$## ....$$@$$        ##$@$ ",
"      *$$$@$$###......$@$$#      *$@@##  ....$$@$$        ##$@$ ",
"      **$$@$### .....$$@$$#      *$@$#   o..$$$@@$$        ##@$ ",
"       *$$@$##   ...$$$@$$#      $$@##   o++*$$$@$$$       ##@$ ",
"       **$@$##      $$$@$$#       $$#  oo+Xo$*$$@$$$        ##  ",
"        *$@$#       $$@@$##X       $  oo++XX *$$@$$$$       ##  ",
"        *$@$#       $$@$$##X          o++XX  **$$@$$$       $#  ",
"        **@$#       $@@$##++XX       o++XX   $*$$@$$$$       $  ",
"         *@$#       $@$###++XX      o++XXo   $*$$@$$$$          ",
"          @@#      $@@$# o+++XX     o+XXX     **$@@$$$          ",
"          $@#      $@    o++++XX   o+XXX      $*$$@$$$          ",
"           $#      $@    o++++XX   o+XXX       **$@$$$          ",
"            #     $$      o++++XX o++XX         **$$$           ",
"            #$             o+++XX o++XX          **$            ",
"             $             o++++Xo+++XX           $$            ",
"                           o++++XX+++X                          ",
"                            o+++X++++X                          ",
"                            o++XX+++XX                          ",
"                             o+X++++XX                          ",
"                             o+X++++XX                          ",
"                              oo++++XX                          ",
"                              o+++++XX                          ",
"                              o+++++XXX                         ",
"                              o++++oXXX                         ",
"                              o++++XXXX...&&&&&                 ",
"                           &&&o++++XXX....&&&&&&&&&             ",
"                         &&&&&o++++oXX.....&&&&&&&&&&           ",
"                        &&:&&&ooooooo......&O&&&&&:&&&          ",
"                      &&&&&&O&&%%%%%%%.....&&&&&&&&&&&          ",
"              &&&&&&&&&&&&&&&&&&&%%%%%%...%&&&&&&&&&&&&&        ",
"           &&&&&&%%&&&&&&&:&&&O&&&%%%%%%%%%%&&&&&&&&&&&&&       ",
"        &&&&&&&&&&&&&&&&&&&&&&&&&&&%%%%%%%O%&&&&&&&&&&&&&&      ",
"       &&&&&&&:&&&&&&&&&&&&&&&&&&&&&&%%%:%%%&&&&&&&&&&&&&&&     ",
"     &&&&&&&&&&&&&&&&&&&&&&&&&&&:&&&&%%%%%%%&&&&&O&&&&O&&&&&&&  ",
"    &&&&%&&&&&&&&&&&&&&&O&&&&&&&&&&&&&%%%%%%&&&&&&&&&&%&&&&&&&& ",
"    &&&&&&&&&&&O&&&&&&&&&&&&&&&&O&&&&&%%%%%%&&&&&&&&&&%&&&&&:&& ",
"    &&&&&&&:&&&&&&&&&&&&&&&&&&&&&&&&&&O%%%%%&&&&&&&&&%%&&&&&&&& ",
"    &&&&&&&&&&&&&&&&&&&&&&&&&&&&&&&&&&%%%%%%%&&&&&&&%%%&&&&&&&& ",
"   %&%&&&&&&&&&&&&&O&&&&&:&&&&&&&&&&&&&%%%%%%%%%%%%%%%%&&&&&&O& ",
"   %%&&&&&&O&&&&&&&&&:&&&&&&&&&&&&&&&&%%%%%O%%%%%%%%%O&&&&&&&&>-",
"   -&&&&:&&&&&&:&&&&&&&&&&&&&&&&&&O&&%%%:%%%%%%%%%%%%&&&&&>>>>>-",
"   ->&&&&&&&&&&&&&&&&&&O&&&&&&&&&&&%%&%%%%%%%%:%%&&&&&>>>;>>>>--",
"   =->>>>&&&&&&>>>>>&&&&&&&&&&O&&&%%%%%%%%%%%%%%%&;;>>--;>>---==",
"   = ;-->>>&&&>>---->>>&&&&&&&&&%%%%%%%%%%%%%%%%;;;>-====---=== ",
"   ==;; --;;;>>------->>>>>>>>>&&%%%%%%>>>>>>>>;;----=---=---   ",
"    ==;;;--------;;;;->>;;;;;-->-%%%>>>;;;--=->---------==-     ",
"      === ------------------=---==--------===---------==-       ",
"              ---------------===----======--------====--        ",
"                    ------=---------->>>>>>--------             ",
"                   ========  ---------------                    ",
"                                                                "
};
