/* XPM */
static char *d0696c66b803479cc8616d5b509e9e6fpKtqsZgktx8XSOLm[] = {
/* columns rows colors chars-per-pixel */
"64 64 9 1 ",
"  c None",
". c black",
"X c #BD0000",
"o c red",
"O c #0B88D1",
"+ c #099EF5",
"@ c #5EBDF5",
"# c #EEC39A",
"$ c white",
/* pixels */
"                                                                ",
"                                                                ",
"                                                                ",
"                                                                ",
"                                                                ",
"                                                                ",
"                                                                ",
"                                                                ",
"                                                                ",
"                                                                ",
"                                           .                    ",
"                                      ..... ..                  ",
"                             .  ..............                  ",
"                           ...................                  ",
"                        . ...................                   ",
"                     . .......................                  ",
"                     ........#.............                     ",
"                      ....##############..                      ",
"                      ...#....####....##..                      ",
"                     ...#..##########..#..                      ",
"                      ..####.######.####.                       ",
"                      ..####.######.####.                       ",
"                      ..####.######.####.                       ",
"                      ..################.                       ",
"                      ..################.                       ",
"                       .###..........###.                       ",
"                       .##..########..##.                       ",
"                       .##.#........#.##.                       ",
"                       .####.######.####.                       ",
"                       ..######..######..                       ",
"                         .#####..#####.                         ",
"                          ............                          ",
"                             .####.                             ",
"                           ...####...                           ",
"                      .....$$......$$.....                      ",
"                    ..$$$$$$$$$$$$$$$$$$$$..                    ",
"                   .$$$$$$$$$$$$$$$$$$$$$$$$.                   ",
"                   .$$$$$$$$$$$$$$$$$$$$$$$$.                   ",
"                   .ooo.oooooooooo....oo.ooo.                   ",
"                   .ooo.ooooooooo.X$XX.o.ooo.                   ",
"                   .ooo.ooooooooo.$XX$.o.ooo.                   ",
"                   .ooo.ooooooooo.$XXX.o.ooo.                   ",
"                   .$$$.ooooooooo.X$XX.o.$$$.                   ",
"                   .$$$.$$$$$$$$$$....$$.$$$.                   ",
"                   .....$$$$$$$$$$$$$$$$.....                   ",
"                   .###.$$$$$$$$$$$$$$$$.###.                   ",
"                   .###.oooooooooooooooo.###.                   ",
"                   .###.oooooooooooooooo.###.                   ",
"                   .###.oooooooooooooooo.###.                   ",
"                   .###.oooooooooooooooo.###.                   ",
"                   .###.oooooooooooooooo.###.                   ",
"                   .###.$$$$$$$$$$$$$$$$.###. @                 ",
"                 @ .###.$$$$$$$$$$$$$$$$.###.@@+++              ",
"             @O++@@OOOOOOOOOOOOOOOOOOOOOOOOO+@++++O             ",
"             +@+++@@+@@@@+++++++++++++++++++@@O+++O             ",
"             +@O++O++++++++++OOOO++OOO+++++@@+@++ O             ",
"               OO +OOOOOOO++++@@@OOO+@@++++OO@++  O             ",
"                 OO  +++++++++++++++++++++O@@@++ O              ",
"                   OOO   +++++++++++++++++++++  O               ",
"                               ++++++++        O                ",
"                                                                ",
"                                                                ",
"                                                                ",
"                                                                "
};
