/* XPM */
static char *_de4ff2d9fc848c6e645f63109edea23xJpPvxgqCxhxhHTc[] = {
/* columns rows colors chars-per-pixel */
"64 64 125 2 ",
"   c None",
".  c black",
"X  c #384A39",
"o  c #3D4346",
"O  c #3D4C43",
"+  c #3F5243",
"@  c #404F46",
"#  c #435746",
"$  c #44534A",
"%  c #455949",
"&  c #4B5B54",
"*  c #4E565A",
"=  c #515E5D",
"-  c #4A614C",
";  c #4E6353",
":  c #516657",
">  c #516359",
",  c #54685C",
"<  c #555D62",
"1  c #566364",
"2  c #5A6266",
"3  c #576A60",
"4  c #5A6D64",
"5  c #5E676C",
"6  c #5D6A6A",
"7  c #5C7463",
"8  c #5F7568",
"9  c #606F6F",
"0  c #62766D",
"q  c #62796B",
"w  c #646C70",
"e  c #647174",
"r  c #6D7273",
"t  c #677C74",
"y  c #687977",
"u  c #67737A",
"i  c #6B767B",
"p  c #6D7C7E",
"a  c #717575",
"s  c #767B7C",
"d  c #698F69",
"f  c #6A8473",
"g  c #6E8977",
"h  c #6E857C",
"j  c #70877E",
"k  c #7C807F",
"l  c #718B7D",
"z  c #737D82",
"x  c #6F8081",
"c  c #738385",
"v  c #7F8382",
"b  c #768E84",
"n  c #77848B",
"m  c #7A868D",
"M  c #7A8F8B",
"N  c #789781",
"B  c #799983",
"V  c #7D948D",
"C  c #7E9C8A",
"Z  c #7D8C92",
"A  c #7E9591",
"S  c #0B88D1",
"D  c #0492E6",
"F  c #5EBDF5",
"G  c #818584",
"H  c #858887",
"J  c #808688",
"K  c #838A8B",
"L  c #898E8E",
"P  c #878E90",
"I  c #819495",
"U  c #8C9293",
"Y  c #839D94",
"T  c #85959C",
"R  c #88959C",
"E  c #869E99",
"W  c #8B9D9D",
"Q  c #919696",
"!  c #979C9C",
"~  c #87A098",
"^  c #89A29D",
"/  c #8D9CA5",
"(  c #8EA3A3",
")  c #90A6A7",
"_  c #9BA3A5",
"`  c #93A4AD",
"'  c #9DA6A9",
"]  c #95A8AE",
"[  c #9CA8AE",
"{  c #96A6B0",
"}  c #97A9B1",
"|  c #9BADB7",
" . c #9DAFB8",
".. c #A0A7A8",
"X. c #A4ACAD",
"o. c #A1B0B6",
"O. c #A4B4BD",
"+. c #ABB7BC",
"@. c #ADB9BE",
"#. c #ACB9BE",
"$. c #ABB8BD",
"%. c #B2BABC",
"&. c #B1BBBF",
"*. c #B4BDBF",
"=. c #A8B8C0",
"-. c #ADBAC0",
";. c #ACBBC2",
":. c #AFBDC3",
">. c #AFBEC5",
",. c #B0BEC3",
"<. c #B4BEC0",
"1. c #B5BEC0",
"2. c #B7C0C2",
"3. c #B3C0C6",
"4. c #B5C1C7",
"5. c #BAC3C5",
"6. c #B3C2C8",
"7. c #B6C4CA",
"8. c #BCC6CA",
"9. c #BCC7CA",
"0. c #BDC8CB",
"q. c #C2CCCF",
"w. c #CAD4D6",
"e. c #CADEEB",
"r. c #CADEEB",
/* pixels */
"                                                                                                                                ",
"                                                                                                                                ",
"                                                                                                                                ",
"                                                                                                                                ",
"                                                                                                                                ",
"                                                                                                                                ",
"                                                                      . . .                                                     ",
"                                                . .                 . a r | . .                                                 ",
"                                                . . .             . a X.| ` | . .                                               ",
"                                                . | . .           . U w.6.O.| | .                                               ",
"                                            . . | | | . .       . . X.,.o.| | | .                                               ",
"                                        . . . | | | | | | .     . H 5.7.| | | | . .                                             ",
"                                      . | | | | | | | | | . .   . U q.>.| | | | | .                                             ",
"                                    . . | | | | | | . | | | .   . P $.$.| | | | | | .                                           ",
"                                  . . s | | | | <.. w | | | . . . m | | | | | } } | . .                                         ",
"                                    | | | | | | | . | | | | | . . | | | | ` } ` ` | | | .                                       ",
"                                .   | | | | | | . w | | | | | . . . | | O.O.O.` | | ` | . .                                     ",
"                                  | | | | | | . w | | | | | | . . | | . ` O.| | ` ` ` | | | .                                   ",
"                              . | | | | | | . . | | | | | | . . . . . O.` | O.` | ` | | | | . .                                 ",
"                              . | | | | | . . | | | | | . . . | . . . . O.` | | | ` ` | | | | . .                               ",
"                              . | | | | L . | | | | . . . | | . | ` / / ` ` | | | ` | | | | | | .                               ",
"                              . | | | | K w | | | | . 1 m | | | | | ` ` | | | | | | | | | | | | .                               ",
"                              . | | | | . | | | | . u / | | | | | | ` ` | | | | | | | | | | | | | . .                           ",
"                              . | | | | . | | | . . m | | | | | | ` | | / | | | | | | | | | | | | | .                           ",
"                              . | | u | | | | . . w T | } } | ` } | | / | | | | | | | | | | | | | | .                           ",
"                          . . . . . . . . . . | m / | | } } ` } | | | / | | | | | | | | | | | | | | .                           ",
"                      . . 4.4.4.4.| | | | | | | | | | | | | | ` ` | | | | | | | | | | | | | | | | | | .                         ",
"                  . . r m | | | | | | | | | | | | | | | | ` | } ` / | | | | | | | | | | | | | | | | | .                         ",
"                  . r ' o.} | | | | | | | | | | | | | | | | | | | | | | | | | | | | | | | | | | | | | .                         ",
"                . . ! 9.;.| | | | | | | | | | | | | | | | | | | | | | | | | | | | | R | | R | | | | | .                         ",
"                . v %.#.O.| | | | | | | | | | | | | | | | | | | | | | | | | | | | R | | | | | | | | | .                         ",
"                . L 0.$.O.| | | | | | | | | | | | | | | | | | | | | | | | | | . 4.w w | | | | | | | | | .                       ",
"              . . ..#.o.o.W . | | | | | | | | | | | | | | | | | | | | | 4.m . w w w ` ` ` | | | | | | | .                       ",
"              . k +.3.| :._ . | | ` | | | | | | | | | | | | | | | | | | _ . . 2 n / ` ` | | | | | | | | .                       ",
"            . . ! 9.;.| | 2.J . p / | | | | | | | | | | | | | | | | | | P . o z T ` ` | | | | | | | | | | . .                   ",
"            . G <.;.O.| | o.X.. < n ` | | | | | | | | | | | | | | | | | P . * I ` | ` | | | | | | | | | | | . .                 ",
"          . . U %.O.| | |  .*.L . e / | | | | | | | | | | | | | | | | | z . 5 T | | | | | | | | | | | | | | | . . .             ",
"        . . z [ :.O.| | | | ` Q . w | | | | | | | | | | | | | | | | | | . 5 Z ] | | w | | | | | | | | | | | T t d . . .         ",
"      . . | ` =.=. .| | | | | z . w | | | | | | | | | | | | | | | | | | . 6 Z ] | | | | | | | | | | | | | | ] Y j 8 $ . .       ",
"    . . | | | | | | | | | | o.i . w | | | | | | | | | | | | | | | | | | | . p ( | | | | | | | | | | | | | | | ) W E 0 $ . .     ",
"    . | | | | | | | | | | |  .| . w | | | | | | | | | | | | | | | | | | | . 3 ^ | | | | | | | | | | ` | ` | | } ] ( V q X .     ",
"  . | | | | | } } | | | | | | | . u / | | | | | | | | | | | | | | | | | | . 6 ( | | | | | | | | ` ` | | | | | | | } ( l ; .     ",
"  . | | | | ` ` ` | | | | | | . 1 m ` | | | | | | | | | | | | | | | | | | . | ] | | | | | | | | | | | | | | | | | | ) E f % .   ",
"  . | | | } ` ` ` | | | | | | . 1 / { { | | | | | | | | | | | | | | | | | | | | | | | | | | | | | | | | | | | | | | } ( b : .   ",
"  . | | | ` ` ` } | | | | | . . e T | | | } | | | | | | | | | | | | | | | | | | | | | | | | | | | | | | | | | | | | | ] Y ; .   ",
"  . | | } ` ` ` | | | | | | . & x / ` ` | | | | | | | | | | | | | | | | | | | | | | | | | { | | | | ` | | | | | | | | ) V q .   ",
"  . | | ` ( ` } | | | | | | . & A ] ` ` | } | | | | | | | | | | | | | | | | | | | { | | { | | | | | | | | | | | | | | } Y f d . ",
". | | | ( ( ` } | | | | | | . y ^ } | ` | } } | } | | | | | | | | | | | | | | | ` ` | { | { { { | | | | | | | | | } } | ( Y d . ",
". | | ) ^ Y ( } | | | | | | | | ] } | } } } } } | | | | | | | | | | | | | | | | | ` ` { | { { | | | | | | | | | | } I m e | | . ",
". | | ) ~ Y ^ } | | | | | | | | | | | | | } | E } | | | | | | | | | | | | | | ` ` ` ` | | | | | | | | | | | } ] ] ` z . . . . D ",
". | | | ( ^ ` } | | | | | | | | | | | | } | } | | | | | | | | | | | | | | | | | ` | { { | | | | | | | | } ] ( Y M x | . D D D D ",
". . | | | | } | ] } ] } ] } } | | | | } | E } } | | | | | | | | | | | | | | | | | { ` ` | | | | | } ] ( ^ V l 7 d . . D D       ",
"D . . . . | c A V Y V Y V I ( ( ) ] ] | ^ | | | | ^ | | | | | | | | B | ( | | | ` | ` | | | | | ] ) E V 0 , + . . . D D e.      ",
"F D D D . . . & 3 > , > , 4 j V A V A Y ^ I E f B Y Y | Y ^ | | | | ^ B | ( | | | | | | | | | ] / M h 4 O . . D D D D F e.      ",
"  F F e.D D . . . . . . . . q f 3 & & > , 4 f N B C Y ^ ^ ^ ^ ^ ^ | | B ( ( ] | | | | | | ] W Y j 3 & O . D D D F F F e.        ",
"F F F F e.e.F D D D D D D D D F . . . . . . # - - ; : q g B B B B B B B B C Y ^ | | | A c 9 3 > @ . . D D D F   F   e.          ",
"F F   F F e.e.e.F   F F F     D D D D D D D . . . . . . d d d d d d d d d d d d d d d d = $ . . . . D D F   F F   e.e.          ",
"  F F F F F F F F F F F F F F   F F F F F F D D D D D D . . . . . . . . . . . . . . . . D D D D D D D F F F     e.e.            ",
"      F F e.  F   F         F e.e.e.e.e.e.F F F F F F F F F D D D D D D S S S S S S D D F F F F   F e.F F F F                   ",
"        F F e.e.e.e.e.e.F                         F F F F F F F F F F F   F e.F F F F F F   F F F F e.F                         ",
"                e.                      e.e.e.e.e.e.    e.F   F e.e.e.F F   e.F   F F F F e.e.e.e.e.                            ",
"                                                    e.e.e.            e.e.e.        F F F                                       ",
"                                                                                                                                ",
"                                                                                                                                "
};
