/* XPM */
static char *_465839d23c84ad9c4c8977127550a61oeYzp7xWnP2qkDA4[] = {
/* columns rows colors chars-per-pixel */
"64 64 6 1 ",
"  c #0B88D1",
". c #0492E6",
"X c #099EF5",
"o c #27ACFA",
"O c #4DB7F5",
"+ c #5EBDF5",
/* pixels */
"XX XXXXXXXXXXXXXXX XXXXXXXXXXXXXXX XXXXXXXXXXXXXXX XXXXXXXXXXXXX",
"XXX+XXXXXXXXXXXXXXX+XXXXXXXXXXXXXXX+XXXXXXXXXXXXXXX+XXXXXXXXXXXX",
"XXXXXXXXXXXXXXXXXXXXXXXXXXXXXXXXXXXXXXXXXXXXXXXXXXXXXXXXXXXXXXXX",
"XXXXXXXXXXXXXXXXXXXXXXXXXXXXXXXXXXXXXXXXXXXXXXXXXXXXXXXXXXXXXXXX",
"XXXXXXXXooo+++XXXXXXXXXXooo+++XXXXXXXXXXooo+++XXXXXXXXXXooo+++XX",
"XXXXXXXO ..XXXoXXXXXXXXO ..XXXoXXXXXXXXO ..XXXoXXXXXXXXO ..XXXoX",
"+XXXX++ XXXXXXXX+XXXX++ XXXXXXXX+XXXX++ XXXXXXXX+XXXX++ XXXXXXXX",
"X++oX .XXXXXXXXXX++oX .XXXXXXXXXX++oX .XXXXXXXXXX++oX .XXXXXXXXX",
"XXXXXXXXXXXXXXXXXXXXXXXXXXXXXXXXXXXXXXXXXXXXXXXXXXXXXXXXXXXXXXXX",
"XXXXXXXXXXX+XXXXXXXXXXXXXXX+XXXXXXXXXXXXXXX+XXXXXXXXXXXXXXX+XXXX",
"XXXXXXXXX+.XXXXXXXXXXXXXX+.XXXXXXXXXXXXXX+.XXXXXXXXXXXXXX+.XXXXX",
"XXXXXXXXXXXXXXXXXXXXXXXXXXXXXXXXXXXXXXXXXXXXXXXXXXXXXXXXXXXXXXXX",
"XXXXXXXXXXXXXXXXXXXXXXXXXXXXXXXXXXXXXXXXXXXXXXXXXXXXXXXXXXXXXXXX",
"XXXXXXXXXXXXXXXXXXXXXXXXXXXXXXXXXXXXXXXXXXXXXXXXXXXXXXXXXXXXXXXX",
"XXXXXXXXXXXXXXXXXXXXXXXXXXXXXXXXXXXXXXXXXXXXXXXXXXXXXXXXXXXXXXXX",
"XXXXXXXXXXXXXXXXXXXXXXXXXXXXXXXXXXXXXXXXXXXXXXXXXXXXXXXXXXXXXXXX",
"XX XXXXXXXXXXXXXXX XXXXXXXXXXXXXXX XXXXXXXXXXXXXXX XXXXXXXXXXXXX",
"XXX+XXXXXXXXXXXXXXX+XXXXXXXXXXXXXXX+XXXXXXXXXXXXXXX+XXXXXXXXXXXX",
"XXXXXXXXXXXXXXXXXXXXXXXXXXXXXXXXXXXXXXXXXXXXXXXXXXXXXXXXXXXXXXXX",
"XXXXXXXXXXXXXXXXXXXXXXXXXXXXXXXXXXXXXXXXXXXXXXXXXXXXXXXXXXXXXXXX",
"XXXXXXXXooo+++XXXXXXXXXXooo+++XXXXXXXXXXooo+++XXXXXXXXXXooo+++XX",
"XXXXXXXO ..XXXoXXXXXXXXO ..XXXoXXXXXXXXO ..XXXoXXXXXXXXO ..XXXoX",
"+XXXX++ XXXXXXXX+XXXX++ XXXXXXXX+XXXX++ XXXXXXXX+XXXX++ XXXXXXXX",
"X++oX .XXXXXXXXXX++oX .XXXXXXXXXX++oX .XXXXXXXXXX++oX .XXXXXXXXX",
"XXXXXXXXXXXXXXXXXXXXXXXXXXXXXXXXXXXXXXXXXXXXXXXXXXXXXXXXXXXXXXXX",
"XXXXXXXXXXX+XXXXXXXXXXXXXXX+XXXXXXXXXXXXXXX+XXXXXXXXXXXXXXX+XXXX",
"XXXXXXXXX+.XXXXXXXXXXXXXX+.XXXXXXXXXXXXXX+.XXXXXXXXXXXXXX+.XXXXX",
"XXXXXXXXXXXXXXXXXXXXXXXXXXXXXXXXXXXXXXXXXXXXXXXXXXXXXXXXXXXXXXXX",
"XXXXXXXXXXXXXXXXXXXXXXXXXXXXXXXXXXXXXXXXXXXXXXXXXXXXXXXXXXXXXXXX",
"XXXXXXXXXXXXXXXXXXXXXXXXXXXXXXXXXXXXXXXXXXXXXXXXXXXXXXXXXXXXXXXX",
"XXXXXXXXXXXXXXXXXXXXXXXXXXXXXXXXXXXXXXXXXXXXXXXXXXXXXXXXXXXXXXXX",
"XXXXXXXXXXXXXXXXXXXXXXXXXXXXXXXXXXXXXXXXXXXXXXXXXXXXXXXXXXXXXXXX",
"XX XXXXXXXXXXXXXXX XXXXXXXXXXXXXXX XXXXXXXXXXXXXXX XXXXXXXXXXXXX",
"XXX+XXXXXXXXXXXXXXX+XXXXXXXXXXXXXXX+XXXXXXXXXXXXXXX+XXXXXXXXXXXX",
"XXXXXXXXXXXXXXXXXXXXXXXXXXXXXXXXXXXXXXXXXXXXXXXXXXXXXXXXXXXXXXXX",
"XXXXXXXXXXXXXXXXXXXXXXXXXXXXXXXXXXXXXXXXXXXXXXXXXXXXXXXXXXXXXXXX",
"XXXXXXXXooo+++XXXXXXXXXXooo+++XXXXXXXXXXooo+++XXXXXXXXXXooo+++XX",
"XXXXXXXO ..XXXoXXXXXXXXO ..XXXoXXXXXXXXO ..XXXoXXXXXXXXO ..XXXoX",
"+XXXX++ XXXXXXXX+XXXX++ XXXXXXXX+XXXX++ XXXXXXXX+XXXX++ XXXXXXXX",
"X++oX .XXXXXXXXXX++oX .XXXXXXXXXX++oX .XXXXXXXXXX++oX .XXXXXXXXX",
"XXXXXXXXXXXXXXXXXXXXXXXXXXXXXXXXXXXXXXXXXXXXXXXXXXXXXXXXXXXXXXXX",
"XXXXXXXXXXX+XXXXXXXXXXXXXXX+XXXXXXXXXXXXXXX+XXXXXXXXXXXXXXX+XXXX",
"XXXXXXXXX+.XXXXXXXXXXXXXX+.XXXXXXXXXXXXXX+.XXXXXXXXXXXXXX+.XXXXX",
"XXXXXXXXXXXXXXXXXXXXXXXXXXXXXXXXXXXXXXXXXXXXXXXXXXXXXXXXXXXXXXXX",
"XXXXXXXXXXXXXXXXXXXXXXXXXXXXXXXXXXXXXXXXXXXXXXXXXXXXXXXXXXXXXXXX",
"XXXXXXXXXXXXXXXXXXXXXXXXXXXXXXXXXXXXXXXXXXXXXXXXXXXXXXXXXXXXXXXX",
"XXXXXXXXXXXXXXXXXXXXXXXXXXXXXXXXXXXXXXXXXXXXXXXXXXXXXXXXXXXXXXXX",
"XXXXXXXXXXXXXXXXXXXXXXXXXXXXXXXXXXXXXXXXXXXXXXXXXXXXXXXXXXXXXXXX",
"XX XXXXXXXXXXXXXXX XXXXXXXXXXXXXXX XXXXXXXXXXXXXXX XXXXXXXXXXXXX",
"XXX+XXXXXXXXXXXXXXX+XXXXXXXXXXXXXXX+XXXXXXXXXXXXXXX+XXXXXXXXXXXX",
"XXXXXXXXXXXXXXXXXXXXXXXXXXXXXXXXXXXXXXXXXXXXXXXXXXXXXXXXXXXXXXXX",
"XXXXXXXXXXXXXXXXXXXXXXXXXXXXXXXXXXXXXXXXXXXXXXXXXXXXXXXXXXXXXXXX",
"XXXXXXXXooo+++XXXXXXXXXXooo+++XXXXXXXXXXooo+++XXXXXXXXXXooo+++XX",
"XXXXXXXO ..XXXoXXXXXXXXO ..XXXoXXXXXXXXO ..XXXoXXXXXXXXO ..XXXoX",
"+XXXX++ XXXXXXXX+XXXX++ XXXXXXXX+XXXX++ XXXXXXXX+XXXX++ XXXXXXXX",
"X++oX .XXXXXXXXXX++oX .XXXXXXXXXX++oX .XXXXXXXXXX++oX .XXXXXXXXX",
"XXXXXXXXXXXXXXXXXXXXXXXXXXXXXXXXXXXXXXXXXXXXXXXXXXXXXXXXXXXXXXXX",
"XXXXXXXXXXX+XXXXXXXXXXXXXXX+XXXXXXXXXXXXXXX+XXXXXXXXXXXXXXX+XXXX",
"XXXXXXXXX+.XXXXXXXXXXXXXX+.XXXXXXXXXXXXXX+.XXXXXXXXXXXXXX+.XXXXX",
"XXXXXXXXXXXXXXXXXXXXXXXXXXXXXXXXXXXXXXXXXXXXXXXXXXXXXXXXXXXXXXXX",
"XXXXXXXXXXXXXXXXXXXXXXXXXXXXXXXXXXXXXXXXXXXXXXXXXXXXXXXXXXXXXXXX",
"XXXXXXXXXXXXXXXXXXXXXXXXXXXXXXXXXXXXXXXXXXXXXXXXXXXXXXXXXXXXXXXX",
"XXXXXXXXXXXXXXXXXXXXXXXXXXXXXXXXXXXXXXXXXXXXXXXXXXXXXXXXXXXXXXXX",
"XXXXXXXXXXXXXXXXXXXXXXXXXXXXXXXXXXXXXXXXXXXXXXXXXXXXXXXXXXXXXXXX"
};
