/* XPM */
static char *_5e1b9fbaf59499fc16f9c7cd6f259ef2iqmK3fWvJRFfCrx[] = {
/* columns rows colors chars-per-pixel */
"64 64 6 1 ",
"  c #0B88D1",
". c #0492E6",
"X c #099EF5",
"o c #27ACFA",
"O c #4DB7F5",
"+ c #5EBDF5",
/* pixels */
"XXXXXXXXXXXXXXXXXXXXXXXXXXXXXXXXXXXXXXXXXXXXXXXXXXXXXXXXXXXXXXXX",
"XXXXXXXXXXXXXXXXXXXXXXXXXXXXXXXXXXXXXXXXXXXXXXXXXXXXXXXXXXXXXXXX",
"XXXXXXXXXXXXXXXXXXXXXXXXXXXXXXXXXXXXXXXXXXXXXXXXXXXXXXXXXXXXXXXX",
"XXXXXXXXXXXXXXXXXXXXXXXXXXXXXXXXXXXXXXXXXXXXXXXXXXXXXXXXXXXXXXXX",
"XX+++OooXXXXXXXXXX+++OooXXXXXXXXXX+++OooXXXXXXXXXX+++OooXXXXXXXX",
"XO ..XXXoXXXXXXXXO ..XXXoXXXXXXXXO ..XXXoXXXXXXXXO ..XXXoXXXXXXX",
"+ XXXXXXXXOXXXX++ XXXXXXXXOXXXX++ XXXXXXXXOXXXX++ XXXXXXXXOXXXX+",
".XXXXXXXXXXOooX..XXXXXXXXXXOooX..XXXXXXXXXXOooX..XXXXXXXXXXOooX.",
"XXXXXXXXXXXXXXXXXXXXXXXXXXXXXXXXXXXXXXXXXXXXXXXXXXXXXXXXXXXXXXXX",
"XXXXX+XXXXXXXXXXXXXXX+XXXXXXXXXXXXXXX+XXXXXXXXXXXXXXX+XXXXXXXXXX",
"XXX+.XXXXXXXXXXXXXX+.XXXXXXXXXXXXXX+.XXXXXXXXXXXXXX+.XXXXXXXXXXX",
"XXXXXXXXXXXXXXXXXXXXXXXXXXXXXXXXXXXXXXXXXXXXXXXXXXXXXXXXXXXXXXXX",
"XXXXXXXXXXX.XXXXXXXXXXXXXXX.XXXXXXXXXXXXXXX.XXXXXXXXXXXXXXX.XXXX",
"XXXXXXXXXX+XXXXXXXXXXXXXXX+XXXXXXXXXXXXXXX+XXXXXXXXXXXXXXX+XXXXX",
"XXXXXXXXXXXXXXXXXXXXXXXXXXXXXXXXXXXXXXXXXXXXXXXXXXXXXXXXXXXXXXXX",
"XXXXXXXXXXXXXXXXXXXXXXXXXXXXXXXXXXXXXXXXXXXXXXXXXXXXXXXXXXXXXXXX",
"XXXXXXXXXXXXXXXXXXXXXXXXXXXXXXXXXXXXXXXXXXXXXXXXXXXXXXXXXXXXXXXX",
"XXXXXXXXXXXXXXXXXXXXXXXXXXXXXXXXXXXXXXXXXXXXXXXXXXXXXXXXXXXXXXXX",
"XXXXXXXXXXXXXXXXXXXXXXXXXXXXXXXXXXXXXXXXXXXXXXXXXXXXXXXXXXXXXXXX",
"XXXXXXXXXXXXXXXXXXXXXXXXXXXXXXXXXXXXXXXXXXXXXXXXXXXXXXXXXXXXXXXX",
"XX+++OooXXXXXXXXXX+++OooXXXXXXXXXX+++OooXXXXXXXXXX+++OooXXXXXXXX",
"XO ..XXXoXXXXXXXXO ..XXXoXXXXXXXXO ..XXXoXXXXXXXXO ..XXXoXXXXXXX",
"+ XXXXXXXXOXXXX++ XXXXXXXXOXXXX++ XXXXXXXXOXXXX++ XXXXXXXXOXXXX+",
".XXXXXXXXXXOooX..XXXXXXXXXXOooX..XXXXXXXXXXOooX..XXXXXXXXXXOooX.",
"XXXXXXXXXXXXXXXXXXXXXXXXXXXXXXXXXXXXXXXXXXXXXXXXXXXXXXXXXXXXXXXX",
"XXXXX+XXXXXXXXXXXXXXX+XXXXXXXXXXXXXXX+XXXXXXXXXXXXXXX+XXXXXXXXXX",
"XXX+.XXXXXXXXXXXXXX+.XXXXXXXXXXXXXX+.XXXXXXXXXXXXXX+.XXXXXXXXXXX",
"XXXXXXXXXXXXXXXXXXXXXXXXXXXXXXXXXXXXXXXXXXXXXXXXXXXXXXXXXXXXXXXX",
"XXXXXXXXXXX.XXXXXXXXXXXXXXX.XXXXXXXXXXXXXXX.XXXXXXXXXXXXXXX.XXXX",
"XXXXXXXXXX+XXXXXXXXXXXXXXX+XXXXXXXXXXXXXXX+XXXXXXXXXXXXXXX+XXXXX",
"XXXXXXXXXXXXXXXXXXXXXXXXXXXXXXXXXXXXXXXXXXXXXXXXXXXXXXXXXXXXXXXX",
"XXXXXXXXXXXXXXXXXXXXXXXXXXXXXXXXXXXXXXXXXXXXXXXXXXXXXXXXXXXXXXXX",
"XXXXXXXXXXXXXXXXXXXXXXXXXXXXXXXXXXXXXXXXXXXXXXXXXXXXXXXXXXXXXXXX",
"XXXXXXXXXXXXXXXXXXXXXXXXXXXXXXXXXXXXXXXXXXXXXXXXXXXXXXXXXXXXXXXX",
"XXXXXXXXXXXXXXXXXXXXXXXXXXXXXXXXXXXXXXXXXXXXXXXXXXXXXXXXXXXXXXXX",
"XXXXXXXXXXXXXXXXXXXXXXXXXXXXXXXXXXXXXXXXXXXXXXXXXXXXXXXXXXXXXXXX",
"XX+++OooXXXXXXXXXX+++OooXXXXXXXXXX+++OooXXXXXXXXXX+++OooXXXXXXXX",
"XO ..XXXoXXXXXXXXO ..XXXoXXXXXXXXO ..XXXoXXXXXXXXO ..XXXoXXXXXXX",
"+ XXXXXXXXOXXXX++ XXXXXXXXOXXXX++ XXXXXXXXOXXXX++ XXXXXXXXOXXXX+",
".XXXXXXXXXXOooX..XXXXXXXXXXOooX..XXXXXXXXXXOooX..XXXXXXXXXXOooX.",
"XXXXXXXXXXXXXXXXXXXXXXXXXXXXXXXXXXXXXXXXXXXXXXXXXXXXXXXXXXXXXXXX",
"XXXXX+XXXXXXXXXXXXXXX+XXXXXXXXXXXXXXX+XXXXXXXXXXXXXXX+XXXXXXXXXX",
"XXX+.XXXXXXXXXXXXXX+.XXXXXXXXXXXXXX+.XXXXXXXXXXXXXX+.XXXXXXXXXXX",
"XXXXXXXXXXXXXXXXXXXXXXXXXXXXXXXXXXXXXXXXXXXXXXXXXXXXXXXXXXXXXXXX",
"XXXXXXXXXXX.XXXXXXXXXXXXXXX.XXXXXXXXXXXXXXX.XXXXXXXXXXXXXXX.XXXX",
"XXXXXXXXXX+XXXXXXXXXXXXXXX+XXXXXXXXXXXXXXX+XXXXXXXXXXXXXXX+XXXXX",
"XXXXXXXXXXXXXXXXXXXXXXXXXXXXXXXXXXXXXXXXXXXXXXXXXXXXXXXXXXXXXXXX",
"XXXXXXXXXXXXXXXXXXXXXXXXXXXXXXXXXXXXXXXXXXXXXXXXXXXXXXXXXXXXXXXX",
"XXXXXXXXXXXXXXXXXXXXXXXXXXXXXXXXXXXXXXXXXXXXXXXXXXXXXXXXXXXXXXXX",
"XXXXXXXXXXXXXXXXXXXXXXXXXXXXXXXXXXXXXXXXXXXXXXXXXXXXXXXXXXXXXXXX",
"XXXXXXXXXXXXXXXXXXXXXXXXXXXXXXXXXXXXXXXXXXXXXXXXXXXXXXXXXXXXXXXX",
"XXXXXXXXXXXXXXXXXXXXXXXXXXXXXXXXXXXXXXXXXXXXXXXXXXXXXXXXXXXXXXXX",
"XX+++OooXXXXXXXXXX+++OooXXXXXXXXXX+++OooXXXXXXXXXX+++OooXXXXXXXX",
"XO ..XXXoXXXXXXXXO ..XXXoXXXXXXXXO ..XXXoXXXXXXXXO ..XXXoXXXXXXX",
"+ XXXXXXXXOXXXX++ XXXXXXXXOXXXX++ XXXXXXXXOXXXX++ XXXXXXXXOXXXX+",
".XXXXXXXXXXOooX..XXXXXXXXXXOooX..XXXXXXXXXXOooX..XXXXXXXXXXOooX.",
"XXXXXXXXXXXXXXXXXXXXXXXXXXXXXXXXXXXXXXXXXXXXXXXXXXXXXXXXXXXXXXXX",
"XXXXX+XXXXXXXXXXXXXXX+XXXXXXXXXXXXXXX+XXXXXXXXXXXXXXX+XXXXXXXXXX",
"XXX+.XXXXXXXXXXXXXX+.XXXXXXXXXXXXXX+.XXXXXXXXXXXXXX+.XXXXXXXXXXX",
"XXXXXXXXXXXXXXXXXXXXXXXXXXXXXXXXXXXXXXXXXXXXXXXXXXXXXXXXXXXXXXXX",
"XXXXXXXXXXX.XXXXXXXXXXXXXXX.XXXXXXXXXXXXXXX.XXXXXXXXXXXXXXX.XXXX",
"XXXXXXXXXX+XXXXXXXXXXXXXXX+XXXXXXXXXXXXXXX+XXXXXXXXXXXXXXX+XXXXX",
"XXXXXXXXXXXXXXXXXXXXXXXXXXXXXXXXXXXXXXXXXXXXXXXXXXXXXXXXXXXXXXXX",
"XXXXXXXXXXXXXXXXXXXXXXXXXXXXXXXXXXXXXXXXXXXXXXXXXXXXXXXXXXXXXXXX"
};
